<?xml version="1.0" encoding="UTF-8"?>
<svg xmlns="http://www.w3.org/2000/svg" viewBox="0 0 358.05 154.81">
  <defs>
    <style>
      .cls-1 {
        fill: none;
      }

      .cls-1, .cls-2, .cls-3, .cls-4 {
        stroke-width: 0px;
      }

      .cls-5 {
        mix-blend-mode: multiply;
      }

      .cls-2 {
        fill-rule: evenodd;
      }

      .cls-2, .cls-4 {
        fill: #1b88bf;
      }

      .cls-6 {
        isolation: isolate;
      }

      .cls-3 {
        fill: #3b4e5e;
      }
    </style>
  </defs>
  <g class="cls-6">
    <g id="Layer_2" data-name="Layer 2">
      <g id="Layer_1-2" data-name="Layer 1">
        <g>
          <g>
            <g class="cls-5">
              <path class="cls-2" d="m91.09,131.19c-1.21,0-2.28-.82-2.6-2-.38-1.43.47-2.91,1.9-3.3.23-.06.47-.09.7-.09,1.22,0,2.28.82,2.6,2,.19.7.09,1.42-.27,2.04-.36.62-.94,1.07-1.63,1.25-.23.06-.46.09-.7.09Zm-27.37,0c-.23,0-.47-.03-.7-.09-.7-.19-1.28-.63-1.64-1.25s-.46-1.35-.27-2.04c.32-1.18,1.38-2,2.6-2,.23,0,.47.03.7.09,1.43.38,2.29,1.86,1.9,3.3-.31,1.18-1.38,2-2.6,2Zm13.04-4.62c-1.21,0-2.28-.82-2.6-2-.38-1.43.47-2.91,1.9-3.3.23-.06.47-.09.7-.09,1.21,0,2.28.82,2.6,2,.19.7.09,1.42-.27,2.04-.36.62-.94,1.07-1.63,1.25-.23.06-.47.09-.7.09Zm23.09-6.19c-.72,0-1.4-.28-1.9-.79-1.05-1.05-1.05-2.76,0-3.81.51-.51,1.18-.79,1.9-.79s1.4.28,1.91.79c1.05,1.05,1.05,2.76,0,3.81-.51.51-1.18.79-1.9.79Zm-46.16,0c-.23,0-.47-.03-.7-.09-1.43-.38-2.29-1.86-1.9-3.3.31-1.18,1.38-2,2.6-2,.23,0,.47.03.7.09,1.43.38,2.29,1.86,1.9,3.3-.31,1.17-1.38,2-2.6,2Zm33.95-2.08c-1.22,0-2.28-.82-2.6-2-.19-.69-.09-1.42.27-2.04s.94-1.07,1.63-1.25c.23-.06.46-.09.7-.09,1.21,0,2.28.82,2.6,2,.38,1.43-.47,2.91-1.9,3.3-.23.06-.46.09-.7.09Zm-20.47,0c-.23,0-.47-.03-.7-.09-.7-.19-1.28-.63-1.64-1.25-.36-.62-.46-1.35-.27-2.04.32-1.18,1.39-2,2.6-2,.23,0,.47.03.7.09,1.43.38,2.29,1.87,1.9,3.3-.32,1.17-1.38,1.99-2.6,1.99Zm47.63-.81c-.72,0-1.4-.28-1.9-.79-.51-.51-.79-1.18-.79-1.9s.28-1.39.79-1.9c.51-.51,1.19-.79,1.9-.79s1.4.28,1.9.79c1.05,1.05,1.05,2.76,0,3.81-.51.51-1.19.79-1.91.79Zm-74.8,0c-.72,0-1.4-.28-1.9-.79-1.05-1.05-1.05-2.76,0-3.81.51-.51,1.18-.79,1.9-.79s1.4.28,1.9.79c.51.51.79,1.19.79,1.9,0,.72-.28,1.39-.79,1.9s-1.18.79-1.9.79Zm36.76-3.92c-.8,0-1.5-.54-1.7-1.31-.12-.46-.06-.93.18-1.34.24-.41.62-.7,1.07-.82.15-.04.3-.06.45-.06.8,0,1.5.54,1.71,1.31.12.46.06.93-.18,1.34-.24.41-.62.7-1.07.82-.15.04-.3.06-.46.06Zm-17.05-4.57c-.15,0-.31-.02-.46-.06-.94-.25-1.5-1.22-1.25-2.16.21-.77.91-1.31,1.7-1.31.15,0,.31.02.46.06.46.12.84.41,1.07.82.24.41.3.88.18,1.34-.21.77-.91,1.31-1.7,1.31Zm34.1,0c-.47,0-.92-.18-1.25-.52-.69-.69-.69-1.81,0-2.5.33-.33.78-.51,1.25-.51s.92.18,1.25.52c.69.69.69,1.81,0,2.5-.33.33-.78.52-1.25.52Zm11.72-.78c-.72,0-1.39-.28-1.9-.79-.51-.51-.79-1.18-.79-1.9,0-.72.28-1.4.79-1.9.51-.51,1.18-.79,1.9-.79s1.4.28,1.9.79c.51.51.79,1.18.79,1.9s-.28,1.4-.79,1.91c-.51.51-1.18.79-1.9.79Zm-56.1-.16c-.72,0-1.4-.28-1.9-.79-.51-.51-.79-1.18-.79-1.9s.28-1.4.79-1.9c.51-.51,1.18-.79,1.9-.79s1.4.28,1.9.79c.51.51.79,1.18.79,1.9s-.28,1.4-.79,1.9c-.51.51-1.18.79-1.9.79Zm34.81-2.42c-1.21,0-2.28-.82-2.6-2-.19-.7-.09-1.42.27-2.04.36-.62.94-1.07,1.63-1.25.23-.06.47-.09.7-.09,1.21,0,2.28.82,2.6,2,.19.69.09,1.42-.27,2.04s-.94,1.07-1.63,1.25c-.23.06-.47.09-.7.09Zm-13.68,0c-.24,0-.47-.03-.7-.09-1.43-.38-2.29-1.86-1.9-3.3.32-1.17,1.39-2,2.6-2,.23,0,.47.03.7.09,1.43.38,2.29,1.86,1.91,3.3-.31,1.17-1.38,2-2.6,2Zm46.18-2.16c-.72,0-1.4-.28-1.9-.79-.51-.51-.79-1.18-.79-1.9s.28-1.39.79-1.9c.51-.51,1.18-.79,1.9-.79s1.4.28,1.9.79c.51.51.79,1.18.79,1.9s-.28,1.4-.79,1.91c-.51.51-1.18.79-1.9.79Zm-79.96,0c-.72,0-1.4-.28-1.9-.79-1.05-1.05-1.05-2.76,0-3.81.51-.51,1.18-.79,1.9-.79s1.4.28,1.9.79c1.05,1.05,1.05,2.76,0,3.81-.51.51-1.18.79-1.9.79Zm21.92-4.69c-.72,0-1.4-.28-1.9-.79-1.05-1.05-1.05-2.76,0-3.81.51-.51,1.18-.79,1.9-.79s1.39.28,1.9.79c.51.51.79,1.18.79,1.9s-.28,1.4-.79,1.91c-.51.51-1.18.79-1.9.79Zm37.4,0c-.72,0-1.4-.28-1.91-.79-1.05-1.05-1.05-2.76,0-3.81.51-.51,1.18-.79,1.9-.79s1.4.28,1.9.79c1.05,1.05,1.05,2.76,0,3.81-.51.51-1.18.79-1.9.79Zm-48.87-2.27c-.47,0-.92-.18-1.25-.52-.33-.33-.52-.78-.52-1.25,0-.47.18-.91.52-1.25.33-.33.78-.52,1.25-.52s.92.18,1.25.52c.33.33.52.78.52,1.25s-.18.92-.52,1.25c-.33.33-.78.52-1.25.52Zm-20.92-2.74c-1.21,0-2.28-.82-2.6-2-.19-.69-.09-1.42.27-2.04s.94-1.07,1.63-1.25c.23-.06.46-.09.7-.09,1.22,0,2.28.82,2.6,2,.19.7.09,1.42-.27,2.04-.36.62-.94,1.07-1.63,1.25-.23.06-.46.09-.7.09Zm12.88-3.45c-1.21,0-2.28-.82-2.6-2-.19-.69-.09-1.42.27-2.04.36-.62.94-1.07,1.63-1.25.23-.06.46-.09.7-.09,1.22,0,2.29.82,2.6,2,.38,1.43-.47,2.91-1.9,3.3-.23.06-.47.09-.7.09Zm12.66-3.39c-1.21,0-2.28-.82-2.6-2-.19-.69-.09-1.42.27-2.04s.94-1.07,1.63-1.25c.23-.06.46-.09.7-.09,1.22,0,2.29.82,2.6,2,.19.69.09,1.42-.27,2.04-.36.62-.94,1.07-1.64,1.25-.23.06-.46.09-.7.09Zm-21.26-6.54c-1.22,0-2.29-.82-2.6-2-.38-1.43.47-2.91,1.9-3.3.23-.06.47-.09.7-.09,1.21,0,2.28.82,2.6,2,.38,1.43-.47,2.91-1.9,3.3-.23.06-.46.09-.7.09Zm12.06-.93c-.8,0-1.5-.54-1.7-1.31-.12-.46-.06-.93.18-1.34.24-.41.62-.7,1.07-.82.15-.04.3-.06.46-.06.8,0,1.5.54,1.7,1.31.12.46.06.93-.18,1.34-.24.41-.62.7-1.07.82-.15.04-.31.06-.46.06Zm9.2-6.22c-.23,0-.47-.03-.7-.09-.69-.19-1.27-.63-1.63-1.25s-.46-1.35-.27-2.04c.32-1.18,1.38-2,2.6-2,.23,0,.47.03.7.09,1.43.39,2.29,1.86,1.9,3.3-.31,1.18-1.38,2-2.6,2Zm-12.66-3.39c-.23,0-.47-.03-.7-.09-1.43-.38-2.29-1.86-1.9-3.3.31-1.18,1.38-2,2.6-2,.23,0,.47.03.7.09,1.43.38,2.29,1.86,1.9,3.3-.32,1.17-1.39,2-2.6,2h0Zm-12.88-3.45c-.23,0-.47-.03-.7-.09-.69-.19-1.28-.63-1.63-1.25s-.46-1.35-.27-2.04c.31-1.18,1.38-2,2.6-2,.23,0,.47.03.7.09,1.43.38,2.29,1.86,1.9,3.3-.31,1.18-1.38,2-2.6,2Zm20.92-3.98c-.15,0-.31-.02-.46-.06-.94-.25-1.5-1.22-1.25-2.16.21-.77.91-1.31,1.7-1.31.15,0,.31.02.46.06.94.25,1.5,1.22,1.25,2.16-.21.77-.91,1.31-1.7,1.31Zm11.47-1.03c-.72,0-1.4-.28-1.9-.79-1.05-1.05-1.05-2.76,0-3.81.51-.51,1.18-.79,1.9-.79s1.39.28,1.9.79c.51.51.79,1.19.79,1.9s-.28,1.4-.79,1.9c-.51.51-1.18.79-1.9.79Zm37.4,0c-.72,0-1.4-.28-1.9-.79-1.05-1.05-1.05-2.76,0-3.81.51-.51,1.18-.79,1.9-.79s1.4.28,1.91.79c1.05,1.05,1.05,2.76,0,3.81-.51.51-1.18.79-1.9.79Zm20.64-4.08c-1.21,0-2.28-.82-2.6-2-.38-1.43.47-2.91,1.9-3.3.23-.06.47-.09.7-.09,1.21,0,2.28.82,2.6,2,.38,1.43-.47,2.91-1.9,3.3-.23.06-.46.09-.7.09h0Zm-79.96,0c-.23,0-.47-.03-.7-.09-1.43-.38-2.29-1.86-1.9-3.3.32-1.17,1.38-2,2.6-2,.23,0,.47.03.7.09.69.19,1.27.63,1.63,1.25.36.62.45,1.35.27,2.04-.32,1.18-1.38,2-2.6,2Zm47.46-2.77c-.23,0-.47-.03-.7-.09-1.43-.38-2.29-1.86-1.9-3.3.32-1.18,1.38-2,2.6-2,.23,0,.47.03.7.09.69.19,1.27.63,1.63,1.26.36.62.45,1.35.27,2.04-.31,1.18-1.38,2-2.6,2Zm-13.69,0c-1.21,0-2.28-.82-2.6-2-.38-1.43.47-2.91,1.91-3.3.23-.06.46-.09.7-.09,1.21,0,2.28.82,2.6,2,.19.69.09,1.42-.27,2.04-.36.62-.94,1.07-1.64,1.26-.23.06-.46.09-.7.09Zm-21.12-2.42c-.72,0-1.4-.28-1.9-.79-.51-.51-.79-1.18-.79-1.9s.28-1.39.79-1.9c.51-.51,1.18-.79,1.9-.79s1.4.28,1.9.79c.51.51.79,1.19.79,1.9s-.28,1.4-.79,1.9-1.18.79-1.9.79Zm56.1-.16c-.72,0-1.39-.28-1.9-.79-.51-.51-.79-1.18-.79-1.9s.28-1.39.79-1.9c.51-.51,1.18-.79,1.9-.79s1.4.28,1.9.79c.51.51.79,1.18.79,1.9s-.28,1.39-.79,1.9c-.51.51-1.18.79-1.9.79Zm-45.82-2.02c-.8,0-1.5-.54-1.7-1.31-.12-.46-.06-.93.18-1.34.24-.41.62-.7,1.07-.82.15-.04.31-.06.46-.06.8,0,1.5.54,1.7,1.31.12.46.06.93-.18,1.34-.24.41-.62.7-1.07.82-.15.04-.31.06-.46.06Zm34.1,0c-.47,0-.92-.18-1.25-.52-.69-.69-.69-1.81,0-2.5.33-.33.78-.52,1.25-.52s.92.18,1.25.52c.69.69.69,1.81,0,2.5-.33.33-.78.52-1.25.52Zm-17.05-4.57c-.15,0-.31-.02-.46-.06-.45-.12-.83-.41-1.07-.82-.24-.41-.3-.88-.18-1.34.21-.77.91-1.31,1.7-1.31.15,0,.31.02.46.06.46.12.84.41,1.07.82.24.41.3.88.18,1.34-.21.77-.91,1.31-1.7,1.31h0Zm38.03-2.68c-.72,0-1.4-.28-1.9-.79-1.05-1.05-1.05-2.76,0-3.81.51-.51,1.18-.79,1.9-.79s1.4.28,1.91.79c1.05,1.05,1.05,2.76,0,3.81-.51.51-1.18.79-1.9.79Zm-74.8,0c-.72,0-1.4-.28-1.91-.79-1.05-1.05-1.05-2.76,0-3.81.51-.51,1.18-.79,1.9-.79s1.4.28,1.9.79c1.05,1.05,1.05,2.76,0,3.81-.51.51-1.18.79-1.9.79Zm27.1-1.03c-1.22,0-2.28-.82-2.6-2-.38-1.43.47-2.91,1.9-3.3.23-.06.46-.09.7-.09,1.22,0,2.28.82,2.6,2,.19.7.09,1.42-.27,2.04-.36.62-.94,1.07-1.64,1.26-.23.06-.46.09-.7.09Zm20.6,0c-.23,0-.47-.03-.7-.09-.69-.19-1.28-.63-1.63-1.25-.36-.62-.46-1.35-.27-2.04.31-1.18,1.38-2,2.6-2,.23,0,.47.03.7.09.69.19,1.27.63,1.63,1.26.36.62.45,1.35.27,2.04-.31,1.18-1.38,2-2.6,2Zm-34.02-1.25c-1.21,0-2.28-.82-2.6-2-.38-1.43.47-2.91,1.9-3.3.23-.06.46-.09.7-.09,1.21,0,2.28.82,2.6,2,.38,1.43-.47,2.91-1.9,3.3-.23.06-.46.09-.7.09h0Zm46.17,0c-.72,0-1.4-.28-1.9-.79-1.05-1.05-1.05-2.76,0-3.81.51-.51,1.18-.79,1.9-.79s1.39.28,1.9.79c.51.51.79,1.19.79,1.9s-.28,1.39-.79,1.9c-.51.51-1.18.79-1.9.79Zm-23.08-6.18c-.23,0-.47-.03-.7-.09-.69-.19-1.27-.63-1.63-1.25-.36-.62-.45-1.35-.27-2.04.32-1.18,1.38-2,2.6-2,.23,0,.47.03.7.09,1.43.38,2.29,1.86,1.9,3.3-.31,1.18-1.38,2-2.6,2h0Zm-13.06-5.23c-1.21,0-2.28-.82-2.6-2-.19-.69-.09-1.42.27-2.04.36-.62.94-1.07,1.63-1.25.23-.06.47-.09.7-.09,1.21,0,2.28.82,2.6,2,.19.69.09,1.42-.27,2.04-.36.62-.94,1.07-1.63,1.25-.23.06-.47.09-.7.09Zm27.38,0c-.23,0-.47-.03-.7-.09-.7-.19-1.28-.63-1.64-1.25-.36-.62-.46-1.35-.27-2.04.32-1.18,1.38-2,2.6-2,.24,0,.47.03.7.09.69.19,1.27.63,1.63,1.25.36.62.46,1.35.27,2.04-.31,1.18-1.38,2-2.6,2Z"/>
            </g>
            <rect class="cls-4" x="68.5" y="47.26" width="10.33" height=".95" transform="translate(-8.78 77.85) rotate(-53.01)"/>
            <rect class="cls-4" x="41.47" y="73.66" width="11.62" height=".95" transform="translate(-35.62 44.83) rotate(-38)"/>
            <rect class="cls-4" x="52.49" y="89.66" width=".95" height="11.55" transform="translate(-47.98 136.93) rotate(-83.32)"/>
            <rect class="cls-4" x="88.56" y="99.66" width=".95" height="10.6" transform="translate(-44.03 140.14) rotate(-64.5)"/>
            <polygon class="cls-4" points="26.62 64.08 26.01 63.35 37.27 53.97 47.53 60.25 47.03 61.06 37.35 55.13 26.62 64.08"/>
            <polygon class="cls-4" points="90.95 128.94 76.29 124.22 76.29 111.81 77.24 111.81 77.24 123.53 91.24 128.04 90.95 128.94"/>
            <polygon class="cls-4" points="53.23 117.84 49.06 105.74 36.35 101.24 36.66 100.34 49.81 105 54.13 117.53 53.23 117.84"/>
            <polyline class="cls-4" points="106.36 105.55 115.14 114.67 114.46 115.33 104.71 105.2"/>
            <polygon class="cls-4" points="105.4 50.25 99.42 37.93 100.28 37.52 105.67 48.62 114.46 39.67 115.14 40.34 105.4 50.25"/>
            <polygon class="cls-4" points="54.03 37.63 53.33 36.99 63.58 25.75 76.94 31.1 76.59 31.98 63.84 26.88 54.03 37.63"/>
          </g>
          <g>
            <g>
              <path class="cls-3" d="m132.96,82.04c0,3.29-3.34,5.71-9.14,5.71-3.9,0-7.64-1.22-10.42-3.67l1.5-1.6c2.6,2.29,5.47,3.29,9.04,3.29,4.3,0,6.83-1.35,6.83-3.57s-2.62-2.7-7.44-3.11c-4.76-.41-9.32-1.45-9.32-4.97s4.23-5.27,8.99-5.27c3.87,0,7.05,1.35,9.12,3.18l-1.68,1.43c-1.73-1.71-4.35-2.6-7.33-2.62-3.18-.03-6.9.87-6.9,3.21,0,2.22,3.36,2.67,7.56,3,5.42.43,9.19,1.48,9.19,4.99Z"/>
              <path class="cls-3" d="m154.51,71.31h-8.43v15.89h-2.14v-15.89h-8.4v-1.93h18.97v1.93Z"/>
              <path class="cls-3" d="m177.77,69.38v9.42c0,5.2-3.26,8.94-9.4,8.94s-9.42-3.74-9.42-8.94v-9.42h2.14v9.29c0,4.38,2.62,7.08,7.28,7.08s7.26-2.7,7.26-7.08v-9.29h2.14Z"/>
              <path class="cls-3" d="m203.95,78.29c0,5.48-4.18,8.91-10.7,8.91h-8.66v-17.83h8.66c6.52,0,10.7,3.44,10.7,8.91Zm-2.19,0c0-4.56-3.59-6.93-8.66-6.93h-6.37v13.85h6.37c5.07,0,8.66-2.37,8.66-6.93Z"/>
              <path class="cls-3" d="m208.57,69.38l7.49,9.65,7.44-9.65h2.55l-8.94,11.59v6.24h-2.14v-6.24l-8.96-11.59h2.57Z"/>
              <path class="cls-3" d="m249.09,81.81c0,3.51-3.34,5.96-9.65,5.96-4.51,0-8.17-1.27-10.9-3.59l2.34-2.78c2.19,2.01,5.02,2.95,8.66,2.95s5.45-.69,5.45-2.16-1.83-1.88-5.93-2.24c-5.09-.43-9.83-1.55-9.83-5.37s3.97-5.75,9.47-5.75c3.9,0,7.26.97,9.52,2.72l-2.24,2.83c-1.96-1.5-4.38-2.11-7.28-2.14-2.42-.03-5.37.41-5.37,2.04,0,1.53,2.55,1.68,6.09,1.96,5.68.46,9.68,1.66,9.68,5.58Z"/>
              <path class="cls-3" d="m270.87,72.89h-7.79v14.31h-4.08v-14.31h-7.74v-3.51h19.61v3.51Z"/>
              <path class="cls-3" d="m286.85,83.44h-10.77l-1.91,3.77h-4.36l9.45-17.83h4.46l9.45,17.83h-4.41l-1.91-3.77Zm-1.71-3.31l-3.69-7.26-3.69,7.26h7.38Z"/>
              <path class="cls-3" d="m311.71,72.89h-7.79v14.31h-4.08v-14.31h-7.74v-3.51h19.61v3.51Z"/>
              <path class="cls-3" d="m334.43,81.81c0,3.51-3.34,5.96-9.65,5.96-4.51,0-8.18-1.27-10.9-3.59l2.34-2.78c2.19,2.01,5.02,2.95,8.66,2.95s5.45-.69,5.45-2.16-1.83-1.88-5.93-2.24c-5.09-.43-9.83-1.55-9.83-5.37s3.97-5.75,9.47-5.75c3.9,0,7.26.97,9.52,2.72l-2.24,2.83c-1.96-1.5-4.38-2.11-7.28-2.14-2.42-.03-5.37.41-5.37,2.04,0,1.53,2.55,1.68,6.09,1.96,5.68.46,9.68,1.66,9.68,5.58Z"/>
            </g>
            <g>
              <path class="cls-4" d="m155.46,107.27l-2.09-2.45h-2.84v2.45h-1.16v-6.74h4.58c1.57,0,2.73.75,2.73,2.15,0,1.17-.81,1.88-1.98,2.09l2.19,2.5h-1.43Zm-1.58-3.44c.96,0,1.62-.31,1.62-1.15s-.66-1.15-1.62-1.15h-3.36v2.29h3.36Z"/>
              <path class="cls-4" d="m165.5,106.26v1.01h-6.71v-6.74h6.61v1.01h-5.47v1.8h4.6v1.01h-4.6v1.91h5.57Z"/>
              <path class="cls-4" d="m174.4,105.27c0,1.28-1.26,2.2-3.55,2.2-1.58,0-2.97-.46-4.02-1.37l.72-.82c.91.82,1.99,1.18,3.35,1.18,1.5,0,2.33-.4,2.33-1.1s-.85-.88-2.54-1.02c-1.86-.15-3.61-.57-3.61-1.95s1.55-2.08,3.49-2.08c1.46,0,2.71.43,3.51,1.12l-.73.79c-.69-.61-1.65-.9-2.76-.91-1.07,0-2.34.25-2.34,1s1.13.84,2.6.95c2.1.16,3.56.59,3.56,1.99Z"/>
              <path class="cls-4" d="m183.51,100.53v3.56c0,1.99-1.28,3.38-3.67,3.38s-3.66-1.39-3.66-3.38v-3.56h1.16v3.49c0,1.51.9,2.43,2.5,2.43s2.51-.92,2.51-2.43v-3.49h1.16Z"/>
              <path class="cls-4" d="m192.01,106.25v1.02h-6.12v-6.74h1.16v5.72h4.97Z"/>
              <path class="cls-4" d="m198.66,101.54h-3.07v5.73h-1.16v-5.73h-3.05v-1.01h7.28v1.01Z"/>
              <path class="cls-4" d="m207.17,105.27c0,1.28-1.26,2.2-3.55,2.2-1.58,0-2.98-.46-4.02-1.37l.72-.82c.92.82,1.99,1.18,3.35,1.18,1.5,0,2.33-.4,2.33-1.1s-.85-.88-2.54-1.02c-1.86-.15-3.61-.57-3.61-1.95s1.55-2.08,3.49-2.08c1.46,0,2.71.43,3.51,1.12l-.73.79c-.69-.61-1.65-.9-2.76-.91-1.07,0-2.34.25-2.34,1s1.13.84,2.6.95c2.1.16,3.56.59,3.56,1.99Z"/>
              <path class="cls-4" d="m218.6,101.54h-3.07v5.73h-1.16v-5.73h-3.05v-1.01h7.28v1.01Z"/>
              <path class="cls-4" d="m219.49,103.9c0-2.22,1.6-3.57,4.19-3.57s4.19,1.35,4.19,3.57-1.6,3.57-4.19,3.57-4.19-1.35-4.19-3.57Zm7.19,0c0-1.64-1.17-2.55-3-2.55s-3.01.92-3.01,2.55,1.17,2.55,3.01,2.55,3-.92,3-2.55Z"/>
              <path class="cls-4" d="m239.99,106.26v1.01h-6.71v-6.74h6.61v1.01h-5.47v1.8h4.6v1.01h-4.6v1.91h5.57Z"/>
              <path class="cls-4" d="m242.33,100.53l2.84,5.56,2.84-5.56h1.26l-3.5,6.74h-1.23l-3.5-6.74h1.28Z"/>
              <path class="cls-4" d="m250.85,107.27v-6.74h1.16v6.74h-1.16Z"/>
              <path class="cls-4" d="m262.04,103.9c0,2.08-1.6,3.37-4.1,3.37h-3.42v-6.74h3.42c2.5,0,4.1,1.29,4.1,3.37Zm-1.18,0c0-1.56-1.23-2.36-3-2.36h-2.18v4.72h2.18c1.77,0,3-.8,3-2.36Z"/>
              <path class="cls-4" d="m270.8,106.26v1.01h-6.71v-6.74h6.62v1.01h-5.47v1.8h4.6v1.01h-4.6v1.91h5.56Z"/>
              <path class="cls-4" d="m280.19,100.53v6.74h-1.02l-5.27-5.31v5.31h-1.12v-6.74h1.23l5.05,5.11v-5.11h1.13Z"/>
              <path class="cls-4" d="m288.84,105.25l1.07.53c-.64.98-1.87,1.68-3.57,1.68-2.52,0-4.11-1.36-4.11-3.57s1.59-3.57,4.16-3.57c1.66,0,2.89.71,3.51,1.68l-1.08.54c-.5-.83-1.36-1.19-2.46-1.19-1.78,0-2.97.87-2.97,2.55s1.18,2.55,2.97,2.55c1.1,0,1.96-.36,2.47-1.19Z"/>
              <path class="cls-4" d="m298.45,106.26v1.01h-6.71v-6.74h6.62v1.01h-5.47v1.8h4.6v1.01h-4.6v1.91h5.56Z"/>
            </g>
          </g>
          <rect class="cls-1" width="358.05" height="154.81"/>
        </g>
      </g>
    </g>
  </g>
</svg>